<mxfile host="app.diagrams.net" modified="2024-02-04T12:33:53.359Z" agent="Mozilla/5.0 (Macintosh; Intel Mac OS X 10_15_7) AppleWebKit/537.36 (KHTML, like Gecko) Chrome/120.0.0.0 Safari/537.36" etag="IKpKEz9h6zPXTSagIyCl" version="21.6.5" type="github">
  <diagram name="Page-1" id="FNJreq8SMg8x2K_SVzvQ">
    <mxGraphModel dx="1178" dy="663" grid="1" gridSize="10" guides="1" tooltips="1" connect="1" arrows="1" fold="1" page="1" pageScale="1" pageWidth="827" pageHeight="1169" math="0" shadow="0">
      <root>
        <mxCell id="0" />
        <mxCell id="1" parent="0" />
        <mxCell id="G8bUCPtwRGstYLRXBY_5-1" style="edgeStyle=none;rounded=1;html=1;labelBackgroundColor=none;startArrow=none;startFill=0;startSize=5;endArrow=classicThin;endFill=1;endSize=5;jettySize=auto;orthogonalLoop=1;strokeColor=#B3B3B3;strokeWidth=1;fontFamily=Verdana;fontSize=12" edge="1" parent="1" source="G8bUCPtwRGstYLRXBY_5-4" target="G8bUCPtwRGstYLRXBY_5-7">
          <mxGeometry relative="1" as="geometry" />
        </mxCell>
        <mxCell id="G8bUCPtwRGstYLRXBY_5-2" value="relation" style="edgeStyle=none;rounded=1;html=1;labelBackgroundColor=none;startArrow=none;startFill=0;startSize=5;endArrow=classicThin;endFill=1;endSize=5;jettySize=auto;orthogonalLoop=1;strokeColor=#B3B3B3;strokeWidth=1;fontFamily=Verdana;fontSize=12" edge="1" parent="1" source="G8bUCPtwRGstYLRXBY_5-4" target="G8bUCPtwRGstYLRXBY_5-20">
          <mxGeometry relative="1" as="geometry" />
        </mxCell>
        <mxCell id="G8bUCPtwRGstYLRXBY_5-3" value="relation" style="edgeStyle=none;rounded=1;html=1;labelBackgroundColor=none;startArrow=none;startFill=0;startSize=5;endArrow=classicThin;endFill=1;endSize=5;jettySize=auto;orthogonalLoop=1;strokeColor=#B3B3B3;strokeWidth=1;fontFamily=Verdana;fontSize=12" edge="1" parent="1" source="G8bUCPtwRGstYLRXBY_5-4" target="G8bUCPtwRGstYLRXBY_5-9">
          <mxGeometry relative="1" as="geometry" />
        </mxCell>
        <mxCell id="G8bUCPtwRGstYLRXBY_5-4" value="数学" style="ellipse;whiteSpace=wrap;html=1;rounded=0;shadow=1;comic=0;labelBackgroundColor=none;strokeWidth=1;fontFamily=Verdana;fontSize=12;align=center;" vertex="1" parent="1">
          <mxGeometry x="260" y="20" width="90" height="60" as="geometry" />
        </mxCell>
        <mxCell id="G8bUCPtwRGstYLRXBY_5-5" value="relation" style="edgeStyle=none;rounded=1;html=1;labelBackgroundColor=none;startArrow=none;startFill=0;startSize=5;endArrow=classicThin;endFill=1;endSize=5;jettySize=auto;orthogonalLoop=1;strokeColor=#B3B3B3;strokeWidth=1;fontFamily=Verdana;fontSize=12" edge="1" parent="1" source="G8bUCPtwRGstYLRXBY_5-7" target="G8bUCPtwRGstYLRXBY_5-17">
          <mxGeometry relative="1" as="geometry" />
        </mxCell>
        <mxCell id="G8bUCPtwRGstYLRXBY_5-6" value="relation" style="edgeStyle=none;rounded=1;html=1;labelBackgroundColor=none;startArrow=none;startFill=0;startSize=5;endArrow=classicThin;endFill=1;endSize=5;jettySize=auto;orthogonalLoop=1;strokeColor=#B3B3B3;strokeWidth=1;fontFamily=Verdana;fontSize=12" edge="1" parent="1" source="G8bUCPtwRGstYLRXBY_5-7" target="G8bUCPtwRGstYLRXBY_5-15">
          <mxGeometry relative="1" as="geometry" />
        </mxCell>
        <mxCell id="G8bUCPtwRGstYLRXBY_5-7" value="&lt;span&gt;Node 2&lt;/span&gt;" style="ellipse;whiteSpace=wrap;html=1;rounded=0;shadow=1;comic=0;labelBackgroundColor=none;strokeWidth=1;fontFamily=Verdana;fontSize=12;align=center;" vertex="1" parent="1">
          <mxGeometry x="267.5" y="130" width="75" height="50" as="geometry" />
        </mxCell>
        <mxCell id="G8bUCPtwRGstYLRXBY_5-8" value="relation" style="edgeStyle=none;rounded=1;html=1;labelBackgroundColor=none;startArrow=none;startFill=0;startSize=5;endArrow=classicThin;endFill=1;endSize=5;jettySize=auto;orthogonalLoop=1;strokeColor=#B3B3B3;strokeWidth=1;fontFamily=Verdana;fontSize=12" edge="1" parent="1" source="G8bUCPtwRGstYLRXBY_5-9" target="G8bUCPtwRGstYLRXBY_5-11">
          <mxGeometry relative="1" as="geometry" />
        </mxCell>
        <mxCell id="G8bUCPtwRGstYLRXBY_5-9" value="&lt;span&gt;Node 3&lt;/span&gt;" style="ellipse;whiteSpace=wrap;html=1;rounded=0;shadow=1;comic=0;labelBackgroundColor=none;strokeWidth=1;fontFamily=Verdana;fontSize=12;align=center;" vertex="1" parent="1">
          <mxGeometry x="510" y="130" width="75" height="50" as="geometry" />
        </mxCell>
        <mxCell id="G8bUCPtwRGstYLRXBY_5-11" value="&lt;span&gt;Node 7&lt;/span&gt;" style="ellipse;whiteSpace=wrap;html=1;rounded=0;shadow=1;comic=0;labelBackgroundColor=none;strokeWidth=1;fontFamily=Verdana;fontSize=12;align=center;" vertex="1" parent="1">
          <mxGeometry x="510" y="260" width="75" height="50" as="geometry" />
        </mxCell>
        <mxCell id="G8bUCPtwRGstYLRXBY_5-15" value="&lt;span&gt;Node 6&lt;/span&gt;" style="ellipse;whiteSpace=wrap;html=1;rounded=0;shadow=1;comic=0;labelBackgroundColor=none;strokeWidth=1;fontFamily=Verdana;fontSize=12;align=center;" vertex="1" parent="1">
          <mxGeometry x="360" y="260" width="75" height="50" as="geometry" />
        </mxCell>
        <mxCell id="G8bUCPtwRGstYLRXBY_5-17" value="&lt;span&gt;Node 5&lt;/span&gt;" style="ellipse;whiteSpace=wrap;html=1;rounded=0;shadow=1;comic=0;labelBackgroundColor=none;strokeWidth=1;fontFamily=Verdana;fontSize=12;align=center;" vertex="1" parent="1">
          <mxGeometry x="170" y="260" width="75" height="50" as="geometry" />
        </mxCell>
        <mxCell id="G8bUCPtwRGstYLRXBY_5-19" value="relation" style="edgeStyle=none;rounded=1;html=1;labelBackgroundColor=none;startArrow=none;startFill=0;startSize=5;endArrow=classicThin;endFill=1;endSize=5;jettySize=auto;orthogonalLoop=1;strokeColor=#B3B3B3;strokeWidth=1;fontFamily=Verdana;fontSize=12" edge="1" parent="1" source="G8bUCPtwRGstYLRXBY_5-20" target="G8bUCPtwRGstYLRXBY_5-22">
          <mxGeometry relative="1" as="geometry" />
        </mxCell>
        <mxCell id="G8bUCPtwRGstYLRXBY_5-20" value="Node 1" style="ellipse;whiteSpace=wrap;html=1;rounded=0;shadow=1;comic=0;labelBackgroundColor=none;strokeWidth=1;fontFamily=Verdana;fontSize=12;align=center;" vertex="1" parent="1">
          <mxGeometry x="20" y="130" width="75" height="50" as="geometry" />
        </mxCell>
        <mxCell id="G8bUCPtwRGstYLRXBY_5-22" value="&lt;span&gt;Node 4&lt;/span&gt;" style="ellipse;whiteSpace=wrap;html=1;rounded=0;shadow=1;comic=0;labelBackgroundColor=none;strokeWidth=1;fontFamily=Verdana;fontSize=12;align=center;" vertex="1" parent="1">
          <mxGeometry x="20" y="260" width="75" height="50" as="geometry" />
        </mxCell>
      </root>
    </mxGraphModel>
  </diagram>
</mxfile>
